<?xml version="1.0" standalone="no"?>
<!DOCTYPE svg PUBLIC "-//W3C//DTD SVG 20010904//EN"
 "http://www.w3.org/TR/2001/REC-SVG-20010904/DTD/svg10.dtd">
<svg version="1.0" xmlns="http://www.w3.org/2000/svg"
 width="532.000000pt" height="532.000000pt" viewBox="0 0 532.000000 532.000000"
 preserveAspectRatio="xMidYMid meet">
<metadata>
Created by potrace 1.11, written by Peter Selinger 2001-2013
</metadata>
<g transform="translate(0.000000,532.000000) scale(0.100000,-0.100000)"
fill="#000000" stroke="none">
<path d="M2647 5148 c-2 -13 -22 -70 -42 -128 -21 -58 -69 -195 -107 -305
-111 -321 -151 -437 -233 -670 -42 -121 -83 -238 -90 -260 -8 -22 -43 -125
-80 -230 -37 -104 -71 -204 -76 -222 -6 -18 -13 -34 -17 -37 -4 -2 -169 -7
-367 -11 -198 -4 -418 -8 -490 -10 -470 -10 -888 -18 -997 -19 -71 -1 -128 -4
-128 -7 0 -6 169 -137 445 -344 88 -66 162 -122 165 -125 3 -3 79 -61 170
-130 177 -133 375 -283 560 -425 63 -48 141 -106 172 -129 32 -22 59 -45 61
-51 2 -5 -4 -35 -13 -65 -26 -80 -55 -174 -80 -260 -12 -41 -35 -115 -50 -165
-16 -49 -105 -346 -200 -660 -94 -314 -184 -612 -200 -662 -15 -51 -26 -93
-24 -93 4 0 197 134 759 525 165 115 320 223 345 240 25 16 47 32 50 35 3 3
32 23 65 46 33 23 96 66 140 97 44 31 124 86 178 123 l97 67 38 -26 c39 -26
171 -118 257 -178 28 -19 124 -87 215 -149 91 -63 170 -118 175 -123 6 -5 111
-78 235 -164 328 -227 369 -255 547 -380 89 -62 164 -113 167 -113 4 0 -11 52
-104 355 -29 94 -65 213 -80 265 -15 52 -51 172 -80 265 -29 94 -56 184 -60
200 -4 17 -42 143 -84 280 -42 138 -90 295 -107 350 -17 55 -37 120 -45 145
-14 42 -13 46 3 57 10 7 73 54 139 105 115 88 233 177 567 430 78 59 147 111
152 115 6 5 141 107 300 228 455 344 419 315 393 316 -24 1 -74 2 -583 13
-626 13 -862 18 -1278 26 -107 2 -109 3 -119 29 -10 27 -135 383 -168 481 -26
76 -75 218 -160 460 -98 281 -211 607 -268 772 -26 76 -50 138 -53 138 -4 0
-9 -10 -12 -22z"/>
</g>
</svg>
